<?xml version="1.0" encoding="iso-8859-1"?>
<!-- Generator: Adobe Illustrator 19.0.0, SVG Export Plug-In . SVG Version: 6.00 Build 0)  -->
<svg version="1.1" id="Layer_1" xmlns="http://www.w3.org/2000/svg" xmlns:xlink="http://www.w3.org/1999/xlink" fill="#eee" x="0px" y="0px"
	 viewBox="0 0 512 512" style="enable-background:new 0 0 512 512;" xml:space="preserve">
<g>
	<g>
		<path d="M410.319,369.444c-22.539,0-40.875,18.337-40.875,40.875c0,22.538,18.337,40.875,40.875,40.875
			c22.538,0,40.875-18.337,40.875-40.875C451.193,387.781,432.857,369.444,410.319,369.444z M410.319,420.792
			c-5.775,0-10.472-4.698-10.472-10.472s4.698-10.472,10.472-10.472c5.773,0,10.472,4.698,10.472,10.472
			S416.093,420.792,410.319,420.792z"/>
	</g>
</g>
<g>
	<g>
		<path d="M511.999,308.639V0.001H308.637v30.841l-15.42-26.709L117.101,105.814l15.42,26.709l-26.71-15.42L4.132,293.218
			l26.708,15.419H0v203.362h512L511.999,308.639z M339.04,30.403h11.824l130.732-0.001v278.235h-12.573l-7.696-13.33V50.672H359.309
			v67.933L339.04,83.5V30.403z M430.924,242.647l-36.153-62.619l-5.06-8.763v-90.19h41.213V242.647z M282.089,45.664
			l150.006,259.818l-35.106-20.269L274.67,73.352l-88.351,51.01l33.966,58.832l-35.105-20.269l-26.548-45.982L282.089,45.664z
			 M344.329,254.809l-71.384-41.213l-45.095-78.107l35.692-20.607L344.329,254.809z M116.941,158.634l45.982,26.548l141.24,81.545
			l72.594,41.912h-40.536L124.359,186.321L73.35,274.672l58.831,33.966H91.643l-45.98-26.548L116.941,158.634z M275.415,308.639
			h-82.427l-78.106-45.095l20.606-35.692L275.415,308.639z M481.598,481.598L481.598,481.598H30.403V339.041h53.096h101.343H388.88
			h40.537h22.054h30.126V481.598z"/>
	</g>
</g>
<g>
</g>
<g>
</g>
<g>
</g>
<g>
</g>
<g>
</g>
<g>
</g>
<g>
</g>
<g>
</g>
<g>
</g>
<g>
</g>
<g>
</g>
<g>
</g>
<g>
</g>
<g>
</g>
<g>
</g>
</svg>
